<svg viewBox="0 0 58 18" xmlns="http://www.w3.org/2000/svg">
	<path fill="#1c1c1c" d="m55.2 16.5v-8.8h1c.6 0 1-.4 1.1-.9v-.1c.1-.5-.3-1-.9-1.1 0 0 0 0-.1 0h-1.2v-1.7c0-.6-.5-1.2-1.1-1.2-.7 0-1.2.5-1.3 1.1v1.8h-1c-.6 0-1 .4-1.1.9v.1.1c-.1.5.3 1 .9 1.1h.1 1.1v8.8c0 .7.5 1.2 1.2 1.2.7 0 1.2-.5 1.3-1.3z"/>
	<circle fill="#ff4500" cx="47.8" cy="3.4" r="2.1"/>
	<g fill="#1c1c1c">
		<path d="m49 7.8c0-.7-.5-1.2-1.2-1.2s-1.2.5-1.2 1.2v8.7c0 .7.5 1.2 1.2 1.2s1.2-.5 1.2-1.2z"/>
		<path d="m31.4 1.2c0-.7-.5-1.2-1.2-1.2-.7 0-1.2.5-1.2 1.2v5.3c-.8-.8-1.9-1.2-3-1.2-3.1 0-5.7 2.8-5.7 6.3s2.5 6.3 5.7 6.3c1.2 0 2.3-.4 3.1-1.2.2.6.8 1 1.4.8.5-.1.8-.6.9-1zm-5.5 14.4c-1.8 0-3.3-1.8-3.3-4s1.5-4 3.3-4 3.3 1.8 3.3 4-1.4 4-3.3 4z"/>
		<path d="m43.8 1.2c0-.7-.5-1.2-1.2-1.2-.7 0-1.2.5-1.2 1.2v5.3c-.8-.8-1.9-1.2-3-1.2-3.1 0-5.7 2.8-5.7 6.3s2.5 6.3 5.6 6.3c1.2 0 2.3-.4 3.1-1.2.2.6.8 1 1.4.8.5-.1.8-.6.9-1zm-5.4 14.4c-1.8 0-3.3-1.8-3.3-4s1.5-4 3.3-4 3.3 1.8 3.3 4-1.5 4-3.3 4z"/>
		<path d="m17.8 12.4c.8.1 1.5-.6 1.6-1.4v-.1c0-.3 0-.6-.1-.8-.5-2.7-2.8-4.7-5.5-4.8-3.1 0-5.7 2.8-5.7 6.3s2.6 6.3 5.7 6.3c1.7.1 3.3-.6 4.4-1.8.5-.5.4-1.3-.1-1.7l-.1-.1c-.5-.3-1.2-.2-1.6.2-.7.7-1.6 1.1-2.6 1.1-1.7-.1-3.1-1.5-3.3-3.2zm-4-4.7c1.5.1 2.8 1.2 3.1 2.6h-6.2c.3-1.4 1.5-2.5 3.1-2.6z"/>
		<path d="m8.2 6.5c0-.6-.4-1.1-1-1.2-1.6-.2-3.3.4-4.3 1.6v-.2c-.1-.6-.7-1.1-1.3-1-.6 0-1 .5-1.1 1v9.8c0 .6.5 1.2 1.1 1.2.7 0 1.2-.5 1.3-1.1v-.1-5c-.1-2 1.4-3.7 3.4-3.8h.5.2c.7 0 1.2-.6 1.2-1.2z"/>
	</g>
</svg>
